<?xml version="1.0" encoding="UTF-8"?>
<svg width="30px" height="29px" viewBox="0 0 30 29" version="1.1" xmlns="http://www.w3.org/2000/svg" xmlns:xlink="http://www.w3.org/1999/xlink">
    <title>logo</title>
    <desc>Created with Sketch.</desc>
    <g id="Page-1" stroke="none" stroke-width="1" fill="none" fill-rule="evenodd">
        <g id="logo" fill-rule="nonzero">
            <polygon id="Shape" fill="#F8AE00" points="14.9669681 0.709732591 19.9776064 9.01391086 29.3286702 11.2434373 23.0733511 18.6428802 23.8393085 28.3364735 14.9669681 24.5882841 6.12654255 28.3364735 6.8925 18.6428802 0.637180851 11.2434373 9.98824468 9.01391086"></polygon>
            <path d="M23.8393085,28.9827131 C23.7435638,28.9827131 23.679734,28.9504011 23.5839894,28.9180891 L14.9669681,25.2668357 L6.3818617,28.9180891 C6.19037234,29.0150251 5.93505319,28.9827131 5.77547872,28.8534652 C5.58398936,28.7242173 5.48824468,28.4980334 5.52015957,28.2718496 L6.25420213,18.8367521 L0.158457447,11.663493 C-0.00111702128,11.5019331 -0.0330319149,11.2434373 0.0307978723,11.0495655 C0.0946276596,10.8233816 0.286117021,10.6618217 0.477606383,10.6295097 L9.57335106,8.43229526 L14.4244149,0.386612813 C14.5520745,0.192740947 14.7435638,0.0634930362 14.9669681,0.0634930362 L14.9669681,0.0634930362 C15.1903723,0.0634930362 15.3818617,0.192740947 15.5095213,0.386612813 L20.3925,8.46460724 L29.4882447,10.6295097 C29.7116489,10.6941337 29.8712234,10.8556936 29.9350532,11.0495655 C29.998883,11.2757493 29.9669681,11.5019331 29.8073936,11.663493 L23.7435638,18.8690641 L24.4776064,28.3041616 C24.5095213,28.5303454 24.3818617,28.7565292 24.2222872,28.8857772 C24.0946277,28.9504011 23.9669681,28.9827131 23.8393085,28.9827131 Z M14.9669681,23.9420446 C15.0627128,23.9420446 15.1265426,23.9743565 15.2222872,24.0066685 L23.1371809,27.3348022 L22.4669681,18.7075042 C22.4669681,18.5459443 22.498883,18.3520724 22.6265426,18.2228245 L28.2116489,11.6311811 L19.8818617,9.66015042 C19.7222872,9.62783844 19.5627128,9.53090251 19.498883,9.36934262 L15.0307979,1.96989972 L10.5307979,9.33703064 C10.4350532,9.49859053 10.3073936,9.59552646 10.1159043,9.62783844 L1.81803191,11.6311811 L7.4031383,18.2228245 C7.49888298,18.3520724 7.56271277,18.5136323 7.56271277,18.7075042 L6.8925,27.3348022 L14.7754787,24.0066685 C14.8073936,23.9743565 14.8712234,23.9420446 14.9669681,23.9420446 Z" id="Shape" fill="#452816"></path>
        </g>
    </g>
</svg>