<?xml version="1.0" standalone="no"?>
<!DOCTYPE svg PUBLIC "-//W3C//DTD SVG 20010904//EN"
 "http://www.w3.org/TR/2001/REC-SVG-20010904/DTD/svg10.dtd">
<svg version="1.0" xmlns="http://www.w3.org/2000/svg"
 width="640.000000pt" height="640.000000pt" viewBox="0 0 640.000000 640.000000"
 preserveAspectRatio="xMidYMid meet">
<metadata>
Created by potrace 1.11, written by Peter Selinger 2001-2013
</metadata>
<g transform="translate(0.000000,640.000000) scale(0.100000,-0.100000)"
fill="#000000" stroke="none">
<path d="M3138 6251 c-33 -16 -113 -126 -160 -218 -12 -24 -26 -43 -30 -43 -5
0 -7 -4 -3 -9 3 -5 1 -12 -4 -15 -5 -3 -44 -65 -87 -136 -44 -72 -87 -143 -96
-158 -10 -15 -21 -34 -25 -42 -4 -8 -33 -58 -65 -110 -32 -52 -62 -102 -67
-110 -112 -183 -137 -225 -140 -234 -2 -6 -7 -13 -11 -16 -6 -5 -212 -345
-240 -397 -8 -15 -18 -30 -21 -33 -4 -3 -22 -31 -40 -63 -19 -32 -38 -66 -44
-75 -12 -21 -58 -96 -61 -100 -2 -3 -266 -69 -310 -78 -36 -7 -357 -84 -394
-94 -40 -11 -242 -59 -279 -66 -14 -3 -28 -7 -31 -9 -4 -2 -22 -7 -41 -10 -19
-3 -52 -11 -74 -17 -45 -13 -48 -14 -90 -21 -16 -3 -55 -13 -85 -21 -30 -8
-66 -17 -80 -20 -14 -2 -81 -19 -150 -36 -69 -17 -134 -33 -145 -34 -11 -2
-20 -4 -20 -5 0 -2 -10 -4 -22 -7 -62 -11 -240 -58 -258 -67 -21 -10 -41 -34
-45 -52 -1 -5 -5 -14 -10 -20 -4 -5 -7 -28 -6 -51 2 -39 26 -84 71 -130 11
-12 29 -32 40 -46 11 -14 39 -47 62 -74 42 -49 52 -60 123 -144 21 -25 48 -56
60 -70 12 -14 38 -45 58 -69 21 -24 46 -54 57 -65 11 -12 42 -48 70 -81 27
-33 54 -65 60 -71 5 -6 28 -32 50 -59 22 -26 54 -64 71 -84 37 -42 320 -374
431 -506 42 -49 83 -97 92 -105 27 -26 90 -107 87 -111 -2 -2 -7 -44 -10 -94
-7 -100 -14 -182 -21 -265 -3 -30 -8 -89 -10 -130 -3 -41 -8 -106 -11 -145 -4
-38 -8 -86 -9 -105 -8 -114 -17 -231 -20 -270 -2 -25 -7 -81 -10 -125 -3 -44
-8 -102 -10 -130 -2 -27 -7 -81 -10 -120 -3 -38 -7 -97 -10 -130 -17 -212 -18
-224 -30 -395 -4 -58 -9 -107 -10 -108 -8 -9 19 -62 44 -86 53 -51 84 -50 228
9 119 48 237 98 308 130 29 13 85 37 95 40 3 1 16 6 30 12 14 6 54 23 90 38
36 15 89 38 118 51 29 13 54 24 56 24 3 0 26 10 53 22 26 11 57 23 67 25 11 2
27 10 36 18 9 8 21 15 27 15 6 0 28 8 49 17 22 9 41 17 44 18 3 0 22 8 43 18
73 33 105 47 111 47 3 0 40 16 82 35 41 19 78 35 80 35 3 0 25 9 50 20 41 19
92 41 104 45 8 3 59 24 134 56 97 41 110 46 116 46 3 0 16 5 28 12 25 13 28
13 132 -31 25 -11 54 -23 65 -27 55 -23 74 -31 126 -55 31 -14 59 -26 63 -26
4 0 28 -10 54 -22 26 -12 52 -23 57 -24 6 -1 30 -11 55 -22 25 -11 74 -33 110
-47 36 -15 89 -38 118 -51 29 -13 55 -24 58 -24 3 0 24 -8 47 -19 23 -10 114
-49 202 -86 88 -37 174 -73 190 -81 95 -42 272 -114 282 -114 7 0 13 -4 13
-10 0 -5 6 -10 14 -10 7 0 40 -11 72 -25 63 -27 64 -28 161 -69 35 -15 78 -28
96 -30 48 -5 99 23 119 65 21 43 23 60 13 164 -4 44 -9 103 -11 130 -2 28 -6
77 -8 110 -3 33 -7 98 -11 145 -3 47 -8 103 -10 125 -3 22 -7 76 -10 120 -7
99 -14 194 -20 260 -2 28 -7 86 -10 130 -3 44 -8 105 -10 135 -3 30 -7 89 -10
130 -3 41 -8 98 -10 125 -3 28 -7 88 -11 135 -3 47 -7 105 -10 130 -6 70 -16
213 -16 232 1 15 20 41 72 98 14 15 87 103 120 144 8 10 24 28 36 40 11 11 36
41 55 66 19 24 48 59 64 76 17 18 41 47 55 64 14 18 34 43 45 55 32 37 49 56
305 360 282 334 272 322 300 355 12 14 36 42 53 63 18 21 41 49 52 61 11 12
38 44 60 71 22 27 47 56 55 65 55 58 65 127 28 185 -28 42 -41 48 -175 80 -60
14 -119 28 -133 32 -14 3 -34 8 -44 10 -10 2 -53 12 -95 23 -42 10 -87 21
-101 23 -14 3 -52 12 -85 20 -33 9 -71 18 -85 21 -14 3 -43 10 -65 16 -22 6
-49 12 -60 14 -17 3 -188 43 -265 63 -14 3 -34 8 -45 10 -11 2 -92 21 -180 43
-195 47 -251 60 -290 67 -16 3 -38 9 -47 14 -10 5 -18 8 -18 5 0 -3 -15 0 -32
5 -18 6 -46 13 -63 15 -16 3 -44 9 -61 15 -17 5 -42 12 -55 14 -13 3 -36 7
-51 11 -15 3 -31 6 -35 6 -28 1 -45 21 -85 98 -7 14 -15 27 -18 30 -5 4 -117
188 -145 238 -5 10 -28 47 -50 83 -53 85 -50 81 -152 249 -48 80 -127 209
-175 288 -49 79 -88 147 -88 152 0 6 -3 10 -8 10 -7 0 -13 10 -42 66 -8 16
-17 31 -20 34 -4 3 -21 30 -38 60 -18 30 -51 84 -72 119 -22 34 -40 65 -40 68
0 2 -13 24 -30 48 -16 24 -30 47 -30 51 0 4 -11 22 -25 40 -14 18 -25 35 -25
38 0 12 -51 79 -72 96 -33 26 -91 31 -130 11z"/>
</g>
</svg>
